<svg width="25" height="25" viewBox="0 0 25 25" xmlns="http://www.w3.org/2000/svg">
<path fill-rule="evenodd" clip-rule="evenodd" d="M7.68945 2.0957C7.88837 2.0957 8.07913 2.17472 8.21978 2.31537C8.36044 2.45603 8.43945 2.64679 8.43945 2.8457V4.3457H17.4395V2.8457C17.4395 2.64679 17.5185 2.45603 17.6591 2.31537C17.7998 2.17472 17.9905 2.0957 18.1895 2.0957C18.3884 2.0957 18.5791 2.17472 18.7198 2.31537C18.8604 2.45603 18.9395 2.64679 18.9395 2.8457V4.3457H19.6895C20.4851 4.3457 21.2482 4.66177 21.8108 5.22438C22.3734 5.78699 22.6895 6.55005 22.6895 7.3457V18.5957C22.6895 19.3914 22.3734 20.1544 21.8108 20.717C21.2482 21.2796 20.4851 21.5957 19.6895 21.5957H6.18945C5.3938 21.5957 4.63074 21.2796 4.06813 20.717C3.50552 20.1544 3.18945 19.3914 3.18945 18.5957V7.3457C3.18945 6.55005 3.50552 5.78699 4.06813 5.22438C4.63074 4.66177 5.3938 4.3457 6.18945 4.3457H6.93945V2.8457C6.93945 2.64679 7.01847 2.45603 7.15912 2.31537C7.29978 2.17472 7.49054 2.0957 7.68945 2.0957ZM21.1895 11.0957C21.1895 10.6979 21.0314 10.3163 20.7501 10.035C20.4688 9.75374 20.0873 9.5957 19.6895 9.5957H6.18945C5.79163 9.5957 5.4101 9.75374 5.12879 10.035C4.84749 10.3163 4.68945 10.6979 4.68945 11.0957V18.5957C4.68945 18.9935 4.84749 19.3751 5.12879 19.6564C5.4101 19.9377 5.79163 20.0957 6.18945 20.0957H19.6895C20.0873 20.0957 20.4688 19.9377 20.7501 19.6564C21.0314 19.3751 21.1895 18.9935 21.1895 18.5957V11.0957Z"/>
</svg>
