<svg width="20" height="20" viewBox="0 0 20 20" xmlns="http://www.w3.org/2000/svg">
<path fill-rule="evenodd" clip-rule="evenodd" d="M1 8C1 7.46957 1.21071 6.96086 1.58579 6.58579C1.96086 6.21071 2.46957 6 3 6H3.93C4.25918 6.00005 4.58329 5.91884 4.87357 5.76359C5.16384 5.60834 5.4113 5.38383 5.594 5.11L6.406 3.89C6.5887 3.61617 6.83616 3.39166 7.12643 3.23641C7.41671 3.08116 7.74082 2.99995 8.07 3H11.93C12.2592 2.99995 12.5833 3.08116 12.8736 3.23641C13.1638 3.39166 13.4113 3.61617 13.594 3.89L14.406 5.11C14.5887 5.38383 14.8362 5.60834 15.1264 5.76359C15.4167 5.91884 15.7408 6.00005 16.07 6H17C17.5304 6 18.0391 6.21071 18.4142 6.58579C18.7893 6.96086 19 7.46957 19 8V15C19 15.5304 18.7893 16.0391 18.4142 16.4142C18.0391 16.7893 17.5304 17 17 17H3C2.46957 17 1.96086 16.7893 1.58579 16.4142C1.21071 16.0391 1 15.5304 1 15V8ZM14.5 11C14.5 11.5909 14.3836 12.1761 14.1575 12.7221C13.9313 13.268 13.5998 13.7641 13.182 14.182C12.7641 14.5998 12.268 14.9313 11.7221 15.1575C11.1761 15.3836 10.5909 15.5 10 15.5C9.40905 15.5 8.82389 15.3836 8.27792 15.1575C7.73196 14.9313 7.23588 14.5998 6.81802 14.182C6.40016 13.7641 6.06869 13.268 5.84254 12.7221C5.6164 12.1761 5.5 11.5909 5.5 11C5.5 9.80653 5.97411 8.66193 6.81802 7.81802C7.66193 6.97411 8.80653 6.5 10 6.5C11.1935 6.5 12.3381 6.97411 13.182 7.81802C14.0259 8.66193 14.5 9.80653 14.5 11ZM10 14C10.394 14 10.7841 13.9224 11.1481 13.7716C11.512 13.6209 11.8427 13.3999 12.1213 13.1213C12.3999 12.8427 12.6209 12.512 12.7716 12.1481C12.9224 11.7841 13 11.394 13 11C13 10.606 12.9224 10.2159 12.7716 9.85195C12.6209 9.48797 12.3999 9.15726 12.1213 8.87868C11.8427 8.6001 11.512 8.37913 11.1481 8.22836C10.7841 8.0776 10.394 8 10 8C9.20435 8 8.44129 8.31607 7.87868 8.87868C7.31607 9.44129 7 10.2044 7 11C7 11.7956 7.31607 12.5587 7.87868 13.1213C8.44129 13.6839 9.20435 14 10 14Z" />
</svg>
