<svg width="25" height="25" viewBox="0 0 25 25"  xmlns="http://www.w3.org/2000/svg">
<path d="M9.82617 9.8457L14.3262 14.3457M14.3262 9.8457L9.82617 14.3457M21.0762 12.0957C21.0762 13.2776 20.8434 14.4479 20.3911 15.5399C19.9388 16.6318 19.2759 17.6239 18.4401 18.4597C17.6044 19.2954 16.6123 19.9583 15.5203 20.4106C14.4284 20.8629 13.2581 21.0957 12.0762 21.0957C10.8943 21.0957 9.72395 20.8629 8.63202 20.4106C7.54009 19.9583 6.54794 19.2954 5.71221 18.4597C4.87648 17.6239 4.21355 16.6318 3.76126 15.5399C3.30896 14.4479 3.07617 13.2776 3.07617 12.0957C3.07617 9.70875 4.02438 7.41957 5.71221 5.73174C7.40004 4.04391 9.68922 3.0957 12.0762 3.0957C14.4631 3.0957 16.7523 4.04391 18.4401 5.73174C20.128 7.41957 21.0762 9.70875 21.0762 12.0957Z" stroke-width="1.5" stroke-linecap="round" stroke-linejoin="round"/>
</svg>
