<svg width="25" height="25" viewBox="0 0 25 25" xmlns="http://www.w3.org/2000/svg">
<path fill-rule="evenodd" clip-rule="evenodd" d="M11.8496 2.3457C6.46461 2.3457 2.09961 6.7107 2.09961 12.0957C2.09961 17.4807 6.46461 21.8457 11.8496 21.8457C17.2346 21.8457 21.5996 17.4807 21.5996 12.0957C21.5996 6.7107 17.2346 2.3457 11.8496 2.3457ZM10.1296 9.3157C10.0609 9.24202 9.97815 9.18291 9.88615 9.14192C9.79415 9.10093 9.69483 9.07889 9.59413 9.07711C9.49343 9.07533 9.3934 9.09386 9.30001 9.13158C9.20662 9.1693 9.12179 9.22545 9.05057 9.29667C8.97935 9.36788 8.92321 9.45272 8.88549 9.54611C8.84777 9.63949 8.82924 9.73952 8.83102 9.84023C8.83279 9.94093 8.85484 10.0402 8.89583 10.1322C8.93682 10.2242 8.99592 10.307 9.06961 10.3757L10.7896 12.0957L9.06961 13.8157C8.99592 13.8844 8.93682 13.9672 8.89583 14.0592C8.85484 14.1512 8.83279 14.2505 8.83102 14.3512C8.82924 14.4519 8.84777 14.5519 8.88549 14.6453C8.92321 14.7387 8.97935 14.8235 9.05057 14.8947C9.12179 14.966 9.20662 15.0221 9.30001 15.0598C9.3934 15.0975 9.49343 15.1161 9.59413 15.1143C9.69483 15.1125 9.79415 15.0905 9.88615 15.0495C9.97815 15.0085 10.0609 14.9494 10.1296 14.8757L11.8496 13.1557L13.5696 14.8757C13.6383 14.9494 13.7211 15.0085 13.8131 15.0495C13.9051 15.0905 14.0044 15.1125 14.1051 15.1143C14.2058 15.1161 14.3058 15.0975 14.3992 15.0598C14.4926 15.0221 14.5774 14.966 14.6486 14.8947C14.7199 14.8235 14.776 14.7387 14.8137 14.6453C14.8515 14.5519 14.87 14.4519 14.8682 14.3512C14.8664 14.2505 14.8444 14.1512 14.8034 14.0592C14.7624 13.9672 14.7033 13.8844 14.6296 13.8157L12.9096 12.0957L14.6296 10.3757C14.7033 10.307 14.7624 10.2242 14.8034 10.1322C14.8444 10.0402 14.8664 9.94093 14.8682 9.84023C14.87 9.73952 14.8515 9.63949 14.8137 9.54611C14.776 9.45272 14.7199 9.36788 14.6486 9.29667C14.5774 9.22545 14.4926 9.1693 14.3992 9.13158C14.3058 9.09386 14.2058 9.07533 14.1051 9.07711C14.0044 9.07889 13.9051 9.10093 13.8131 9.14192C13.7211 9.18291 13.6383 9.24202 13.5696 9.3157L11.8496 11.0357L10.1296 9.3157Z"/>
</svg>
