<svg width="25" height="25" viewBox="0 0 25 25" xmlns="http://www.w3.org/2000/svg">
<path fill-rule="evenodd" clip-rule="evenodd" d="M19.992 4.72195C20.1575 4.83229 20.2724 5.00384 20.3114 5.19888C20.3504 5.39391 20.3103 5.59645 20.2 5.76195L11.2 19.262C11.1384 19.3542 11.0572 19.4316 10.962 19.4887C10.8669 19.5457 10.7604 19.581 10.65 19.5919C10.5396 19.6028 10.4282 19.5891 10.3238 19.5517C10.2193 19.5144 10.1245 19.4544 10.046 19.376L4.04602 13.376C3.91354 13.2338 3.84142 13.0457 3.84484 12.8514C3.84827 12.6571 3.92698 12.4717 4.0644 12.3343C4.20181 12.1969 4.38719 12.1182 4.5815 12.1148C4.7758 12.1113 4.96384 12.1835 5.10602 12.316L10.459 17.669L18.952 4.92895C19.0625 4.76363 19.2341 4.64895 19.4292 4.61013C19.6242 4.57132 19.8266 4.61154 19.992 4.72195Z"/>
</svg>
