<svg width="25" height="25" viewBox="0 0 25 25" xmlns="http://www.w3.org/2000/svg">
<path fill-rule="evenodd" clip-rule="evenodd" d="M13.4693 16.3759C13.3287 16.5163 13.1381 16.5952 12.9393 16.5952C12.7405 16.5952 12.5499 16.5163 12.4093 16.3759L4.9093 8.87586C4.77682 8.73368 4.7047 8.54564 4.70812 8.35133C4.71155 8.15703 4.79026 7.97165 4.92768 7.83423C5.06509 7.69682 5.25048 7.61811 5.44478 7.61468C5.63908 7.61125 5.82712 7.68338 5.9693 7.81586L12.9393 14.7859L19.9093 7.81586C19.978 7.74217 20.0608 7.68307 20.1528 7.64208C20.2448 7.60108 20.3441 7.57904 20.4448 7.57727C20.5455 7.57549 20.6455 7.59401 20.7389 7.63173C20.8323 7.66945 20.9171 7.7256 20.9883 7.79682C21.0596 7.86804 21.1157 7.95287 21.1534 8.04626C21.1911 8.13965 21.2097 8.23968 21.2079 8.34038C21.2061 8.44108 21.1841 8.5404 21.1431 8.63239C21.1021 8.72439 21.043 8.80719 20.9693 8.87586L13.4693 16.3759Z" />
</svg>
