<svg width="24" height="24" viewBox="0 0 24 24" fill="none" xmlns="http://www.w3.org/2000/svg">
<path fill-rule="evenodd" clip-rule="evenodd" d="M16.2808 11.4698C16.4213 11.6105 16.5002 11.8011 16.5002 11.9998C16.5002 12.1986 16.4213 12.3892 16.2808 12.5298L8.78082 20.0298C8.63865 20.1623 8.4506 20.2345 8.2563 20.231C8.062 20.2276 7.87661 20.1489 7.7392 20.0115C7.60179 19.8741 7.52308 19.6887 7.51965 19.4944C7.51622 19.3001 7.58834 19.112 7.72082 18.9698L14.6908 11.9998L7.72082 5.02985C7.58834 4.88767 7.51622 4.69963 7.51965 4.50532C7.52308 4.31102 7.60179 4.12564 7.7392 3.98822C7.87661 3.85081 8.062 3.7721 8.2563 3.76867C8.4506 3.76524 8.63865 3.83737 8.78082 3.96985L16.2808 11.4698Z" fill="black"/>
</svg>
