<svg width="25" height="25" viewBox="0 0 25 25"  xmlns="http://www.w3.org/2000/svg">
<path d="M10.5762 6.0957H20.3262M10.5762 6.0957C10.5762 6.49353 10.4181 6.87506 10.1368 7.15636C9.85553 7.43767 9.474 7.5957 9.07617 7.5957C8.67835 7.5957 8.29682 7.43767 8.01551 7.15636C7.73421 6.87506 7.57617 6.49353 7.57617 6.0957M10.5762 6.0957C10.5762 5.69788 10.4181 5.31635 10.1368 5.03504C9.85553 4.75374 9.474 4.5957 9.07617 4.5957C8.67835 4.5957 8.29682 4.75374 8.01551 5.03504C7.73421 5.31635 7.57617 5.69788 7.57617 6.0957M7.57617 6.0957H3.82617M10.5762 18.0957H20.3262M10.5762 18.0957C10.5762 18.4935 10.4181 18.8751 10.1368 19.1564C9.85553 19.4377 9.474 19.5957 9.07617 19.5957C8.67835 19.5957 8.29682 19.4377 8.01551 19.1564C7.73421 18.8751 7.57617 18.4935 7.57617 18.0957M10.5762 18.0957C10.5762 17.6979 10.4181 17.3163 10.1368 17.035C9.85553 16.7537 9.474 16.5957 9.07617 16.5957C8.67835 16.5957 8.29682 16.7537 8.01551 17.035C7.73421 17.3163 7.57617 17.6979 7.57617 18.0957M7.57617 18.0957H3.82617M16.5762 12.0957H20.3262M16.5762 12.0957C16.5762 12.4935 16.4181 12.8751 16.1368 13.1564C15.8555 13.4377 15.474 13.5957 15.0762 13.5957C14.6783 13.5957 14.2968 13.4377 14.0155 13.1564C13.7342 12.8751 13.5762 12.4935 13.5762 12.0957M16.5762 12.0957C16.5762 11.6979 16.4181 11.3163 16.1368 11.035C15.8555 10.7537 15.474 10.5957 15.0762 10.5957C14.6783 10.5957 14.2968 10.7537 14.0155 11.035C13.7342 11.3163 13.5762 11.6979 13.5762 12.0957M13.5762 12.0957H3.82617" stroke-width="1.5" stroke-linecap="round" stroke-linejoin="round"/>
</svg>
