<svg width="25" height="25" viewBox="0 0 25 25" xmlns="http://www.w3.org/2000/svg">
<path d="M17.4395 6.0957C17.4395 5.30005 17.1234 4.53699 16.5608 3.97438C15.9982 3.41177 15.2351 3.0957 14.4395 3.0957H6.93945C6.1438 3.0957 5.38074 3.41177 4.81813 3.97438C4.25552 4.53699 3.93945 5.30005 3.93945 6.0957V13.5957C3.93945 14.3914 4.25552 15.1544 4.81813 15.717C5.38074 16.2796 6.1438 16.5957 6.93945 16.5957V10.5957C6.93945 9.40223 7.41356 8.25764 8.25747 7.41372C9.10139 6.56981 10.246 6.0957 11.4395 6.0957H17.4395Z"/>
<path d="M18.9395 7.5957C19.7351 7.5957 20.4982 7.91177 21.0608 8.47438C21.6234 9.03699 21.9395 9.80005 21.9395 10.5957V18.0957C21.9395 18.8914 21.6234 19.6544 21.0608 20.217C20.4982 20.7796 19.7351 21.0957 18.9395 21.0957H11.4395C10.6438 21.0957 9.88074 20.7796 9.31813 20.217C8.75552 19.6544 8.43945 18.8914 8.43945 18.0957V10.5957C8.43945 9.80005 8.75552 9.03699 9.31813 8.47438C9.88074 7.91177 10.6438 7.5957 11.4395 7.5957H18.9395Z"/>
</svg>
