<svg width="25" height="25" viewBox="0 0 25 25"  xmlns="http://www.w3.org/2000/svg">
<path d="M11.4946 21.0058L11.4876 21.0028L11.4656 20.9908C11.3369 20.92 11.2092 20.8473 11.0826 20.7728C9.56042 19.8683 8.13788 18.8057 6.83861 17.6028C4.53761 15.4558 2.09961 12.2698 2.09961 8.34577C2.09961 5.41777 4.56361 3.09577 7.53761 3.09577C8.36436 3.09172 9.18139 3.27411 9.92793 3.62938C10.6745 3.98464 11.3313 4.50364 11.8496 5.14777C12.368 4.50351 13.025 3.98443 13.7717 3.62916C14.5185 3.27389 15.3357 3.09157 16.1626 3.09577C19.1356 3.09577 21.5996 5.41777 21.5996 8.34577C21.5996 12.2708 19.1616 15.4568 16.8606 17.6018C15.5614 18.8047 14.1388 19.8673 12.6166 20.7718C12.49 20.8466 12.3623 20.9196 12.2336 20.9908L12.2116 21.0028L12.2046 21.0068L12.2016 21.0078C12.0932 21.0652 11.9723 21.0952 11.8496 21.0952C11.7269 21.0952 11.606 21.0652 11.4976 21.0078L11.4946 21.0058Z" />
</svg>
