<svg width="25" height="25" viewBox="0 0 25 25"  xmlns="http://www.w3.org/2000/svg">
<path d="M10.6817 7.6147C11.8527 6.5897 13.7527 6.5897 14.9237 7.6147C16.0957 8.6397 16.0957 10.3017 14.9237 11.3267C14.7207 11.5057 14.4937 11.6527 14.2537 11.7687C13.5087 12.1297 12.8037 12.7677 12.8037 13.5957V14.3457M21.8027 12.0957C21.8027 13.2776 21.5699 14.4479 21.1177 15.5399C20.6654 16.6318 20.0024 17.6239 19.1667 18.4597C18.331 19.2954 17.3388 19.9583 16.2469 20.4106C15.155 20.8629 13.9846 21.0957 12.8027 21.0957C11.6208 21.0957 10.4505 20.8629 9.35858 20.4106C8.26665 19.9583 7.2745 19.2954 6.43877 18.4597C5.60305 17.6239 4.94011 16.6318 4.48782 15.5399C4.03553 14.4479 3.80273 13.2776 3.80273 12.0957C3.80273 9.70875 4.75095 7.41957 6.43877 5.73174C8.1266 4.04391 10.4158 3.0957 12.8027 3.0957C15.1897 3.0957 17.4789 4.04391 19.1667 5.73174C20.8545 7.41957 21.8027 9.70875 21.8027 12.0957ZM12.8027 17.3457H12.8107V17.3537H12.8027V17.3457Z" stroke-width="1.5" stroke-linecap="round" stroke-linejoin="round"/>
</svg>
