<svg width="25" height="25" viewBox="0 0 25 25"  xmlns="http://www.w3.org/2000/svg">
<path d="M6.07617 6.9737V6.0957C6.07617 5.49897 6.31322 4.92667 6.73518 4.50471C7.15714 4.08276 7.72943 3.8457 8.32617 3.8457H15.8262C16.4229 3.8457 16.9952 4.08276 17.4172 4.50471C17.8391 4.92667 18.0762 5.49897 18.0762 6.0957V6.9737M6.07617 6.9737C6.31117 6.8907 6.56317 6.8457 6.82617 6.8457H17.3262C17.5892 6.8457 17.8412 6.8907 18.0762 6.9737M6.07617 6.9737C5.63739 7.12884 5.2575 7.41622 4.98886 7.79626C4.72021 8.1763 4.57603 8.6303 4.57617 9.0957V9.9737M18.0762 6.9737C18.515 7.12884 18.8948 7.41622 19.1635 7.79626C19.4321 8.1763 19.5763 8.6303 19.5762 9.0957V9.9737M4.57617 9.9737C4.81117 9.8907 5.06317 9.8457 5.32617 9.8457H18.8262C19.0816 9.84541 19.3353 9.88869 19.5762 9.9737M4.57617 9.9737C3.70217 10.2827 3.07617 11.1157 3.07617 12.0957V18.0957C3.07617 18.6924 3.31322 19.2647 3.73518 19.6867C4.15714 20.1087 4.72943 20.3457 5.32617 20.3457H18.8262C19.4229 20.3457 19.9952 20.1087 20.4172 19.6867C20.8391 19.2647 21.0762 18.6924 21.0762 18.0957V12.0957C21.0763 11.6303 20.9321 11.1763 20.6635 10.7963C20.3948 10.4162 20.015 10.1288 19.5762 9.9737" stroke-width="1.5" stroke-linecap="round" stroke-linejoin="round"/>
</svg>
