<svg width="25" height="25" viewBox="0 0 25 25" xmlns="http://www.w3.org/2000/svg">
<path d="M5.77889 4.7527C6.16484 4.64805 6.563 4.59526 6.96289 4.5957H17.4629C17.8729 4.5957 18.2689 4.6507 18.6459 4.7527C18.3966 4.25468 18.0135 3.8359 17.5397 3.54325C17.0658 3.25059 16.5198 3.09563 15.9629 3.0957H8.46289C7.90578 3.09544 7.35959 3.25032 6.88554 3.54298C6.41149 3.83565 6.02829 4.25453 5.77889 4.7527ZM2.46289 12.0957C2.46289 11.3001 2.77896 10.537 3.34157 9.97438C3.90418 9.41177 4.66724 9.0957 5.46289 9.0957H18.9629C19.7585 9.0957 20.5216 9.41177 21.0842 9.97438C21.6468 10.537 21.9629 11.3001 21.9629 12.0957V18.0957C21.9629 18.8914 21.6468 19.6544 21.0842 20.217C20.5216 20.7796 19.7585 21.0957 18.9629 21.0957H5.46289C4.66724 21.0957 3.90418 20.7796 3.34157 20.217C2.77896 19.6544 2.46289 18.8914 2.46289 18.0957V12.0957ZM5.46289 7.5957C5.05289 7.5957 4.65689 7.6507 4.27889 7.7527C4.52829 7.25453 4.91149 6.83565 5.38554 6.54298C5.85959 6.25032 6.40578 6.09544 6.96289 6.0957H17.4629C18.0198 6.09563 18.5658 6.2506 19.0397 6.54325C19.5135 6.8359 19.8966 7.25468 20.1459 7.7527C19.7603 7.64814 19.3624 7.59535 18.9629 7.5957H5.46289Z"/>
</svg>
