<svg width="142" height="24" viewBox="0 0 142 24" xmlns="http://www.w3.org/2000/svg">
<path fill-rule="evenodd" clip-rule="evenodd" d="M17.8224 5.75311V5.7541L17.8234 5.7541C21.0045 5.7541 23.5834 8.33292 23.5834 11.514C23.5834 14.6952 21.0045 17.274 17.8234 17.274H17.8224C17.8223 20.455 15.2436 23.0338 12.0625 23.0338C8.88141 23.0338 6.30263 20.455 6.30254 17.274C3.12203 17.2733 0.543945 14.6947 0.543945 11.514C0.543945 8.33337 3.12203 5.75483 6.30254 5.7541V5.75311C6.30254 2.57198 8.88135 -0.00683594 12.0625 -0.00683594C15.2436 -0.00683594 17.8224 2.57198 17.8224 5.75311ZM15.9386 11.5148C15.9386 13.5767 14.2671 15.2483 12.2052 15.2483C10.1432 15.2483 8.47169 13.5767 8.47169 11.5148C8.47169 9.45283 10.1432 7.7813 12.2052 7.7813C14.2671 7.7813 15.9386 9.45283 15.9386 11.5148ZM20.2207 4.61445C20.8264 4.61445 21.3173 4.12346 21.3173 3.5178C21.3173 2.91213 20.8264 2.42114 20.2207 2.42114C19.615 2.42114 19.124 2.91213 19.124 3.5178C19.124 4.12346 19.615 4.61445 20.2207 4.61445Z" />
<path d="M31.7387 14.3156V7.09645C31.7387 6.88141 31.7541 6.64589 31.7848 6.38989C31.8155 6.13389 31.9179 5.90349 32.092 5.69869C32.2251 5.54509 32.4043 5.41709 32.6296 5.31468C32.8651 5.21228 33.116 5.16108 33.3822 5.16108H38.2821C38.8862 5.16108 39.475 5.2686 40.0485 5.48365C40.6321 5.69868 41.1134 6.02636 41.4923 6.46669C41.8712 6.90701 42.1272 7.45485 42.2603 8.11021C42.3934 8.75533 42.46 9.54381 42.46 10.4756C42.46 11.5304 42.3883 12.3803 42.2449 13.0254C42.1118 13.6705 41.907 14.1825 41.6305 14.5614C41.3643 14.93 40.9701 15.2475 40.4478 15.5137C39.9256 15.78 39.2907 15.9131 38.5432 15.9131H33.5051C33.3413 15.9131 33.1365 15.8926 32.8907 15.8516C32.6552 15.8107 32.435 15.698 32.2302 15.5137C32.0869 15.3806 31.9691 15.2116 31.8769 15.0068C31.7848 14.802 31.7387 14.5716 31.7387 14.3156ZM35.2101 8.46349V12.4264C35.2101 12.539 35.2152 12.6516 35.2254 12.7643C35.2357 12.8769 35.2817 12.9742 35.3637 13.0561C35.4558 13.1483 35.5685 13.2046 35.7016 13.2251C35.8347 13.2353 35.9115 13.2404 35.932 13.2404H36.4081C36.7973 13.2404 37.1761 13.2046 37.5448 13.1329C37.9134 13.0612 38.2053 12.8923 38.4203 12.626C38.4613 12.5851 38.5073 12.5185 38.5585 12.4264C38.6097 12.3342 38.6609 12.2062 38.7121 12.0424C38.7633 11.8785 38.8043 11.6686 38.835 11.4126C38.876 11.1464 38.8965 10.8238 38.8965 10.4449C38.8965 9.85101 38.8248 9.37485 38.6814 9.01645C38.5483 8.65805 38.3793 8.38669 38.1745 8.20237C37.939 7.99757 37.6574 7.86957 37.3297 7.81837C37.0123 7.76717 36.6437 7.74157 36.2238 7.74157H35.9627C35.8705 7.74157 35.7784 7.75181 35.6862 7.77229C35.5941 7.78253 35.507 7.81324 35.4251 7.86444C35.3227 7.94637 35.2613 8.04877 35.2408 8.17165C35.2203 8.28429 35.2101 8.38157 35.2101 8.46349ZM52.1302 15.9131H46.9846C46.6774 15.9131 46.3855 15.908 46.1091 15.8977C45.8326 15.8875 45.5715 15.8516 45.3257 15.7902C45.0799 15.7185 44.8547 15.611 44.6499 15.4676C44.4451 15.3243 44.2607 15.1195 44.0969 14.8532C43.9228 14.5563 43.8102 14.1825 43.759 13.732C43.7078 13.2712 43.6822 12.6721 43.6822 11.9348C43.6822 11.5662 43.6822 11.2129 43.6822 10.875C43.6822 10.5371 43.6975 10.2248 43.7283 9.93805C43.7692 9.64109 43.8358 9.36973 43.9279 9.12397C44.0201 8.87821 44.1583 8.66317 44.3427 8.47885C44.527 8.28429 44.7574 8.13581 45.0339 8.03341C45.3206 7.92077 45.6329 7.83884 45.9708 7.78764C46.3087 7.73644 46.662 7.70573 47.0307 7.69549C47.4095 7.68525 47.7935 7.68013 48.1827 7.68013C49.0121 7.68013 49.6982 7.70573 50.2409 7.75693C50.7836 7.80813 51.2188 7.96685 51.5465 8.23309C51.7411 8.38669 51.8947 8.57613 52.0073 8.80141C52.1302 9.02669 52.2223 9.26221 52.2838 9.50797C52.3452 9.75373 52.3811 10.0046 52.3913 10.2606C52.4118 10.5064 52.422 10.7419 52.422 10.9672C52.422 11.2334 52.3964 11.5048 52.3452 11.7812C52.3043 12.0475 52.166 12.2728 51.9305 12.4571C51.7974 12.5697 51.6643 12.6363 51.5311 12.6568C51.4083 12.6772 51.2751 12.6875 51.1318 12.6875H46.6927C46.6825 12.8001 46.6876 12.9179 46.7081 13.0408C46.7388 13.1636 46.7798 13.266 46.831 13.348C46.9641 13.5528 47.1535 13.6705 47.3993 13.7012C47.6553 13.7217 47.9164 13.732 48.1827 13.732H52.1302V15.9131ZM46.6927 10.7828H48.9199C49.135 10.7828 49.2681 10.7316 49.3193 10.6292C49.3807 10.5268 49.4115 10.4347 49.4115 10.3528C49.4115 10.2401 49.3756 10.1326 49.3039 10.0302C49.2323 9.92781 49.0838 9.85101 48.8585 9.79981C48.7356 9.77933 48.5923 9.76397 48.4284 9.75373C48.2646 9.74349 48.1417 9.73837 48.0598 9.73837C47.8857 9.73837 47.6963 9.74861 47.4915 9.76909C47.2867 9.77933 47.1279 9.81517 47.0153 9.87661C46.8617 9.95853 46.7644 10.0814 46.7235 10.2452C46.6825 10.3988 46.6723 10.578 46.6927 10.7828ZM54.0151 7.77229H59.4065C59.9083 7.77229 60.323 7.84909 60.6507 8.00268C60.9886 8.14604 61.2446 8.30477 61.4187 8.47885C61.5825 8.64269 61.7156 8.82701 61.818 9.03181C61.9204 9.22637 61.9972 9.42605 62.0484 9.63085C62.1099 9.82541 62.1457 10.0251 62.1559 10.2299C62.1764 10.4244 62.1867 10.6036 62.1867 10.7675V14.1774C62.1867 14.3924 62.1662 14.6177 62.1252 14.8532C62.0843 15.0785 61.9716 15.2884 61.7873 15.483C61.5927 15.6878 61.3726 15.8107 61.1268 15.8516C60.8811 15.8926 60.6404 15.9131 60.4049 15.9131H55.6126C55.3566 15.9131 55.0955 15.8926 54.8292 15.8516C54.5732 15.8107 54.3377 15.6878 54.1227 15.483C53.9691 15.3396 53.8462 15.1707 53.754 14.9761C53.6619 14.7816 53.5953 14.5819 53.5543 14.3771C53.5134 14.162 53.4878 13.9521 53.4775 13.7473C53.4673 13.5425 53.4622 13.3582 53.4622 13.1944C53.4622 13.0203 53.4673 12.8411 53.4775 12.6568C53.498 12.4622 53.5287 12.2728 53.5697 12.0884C53.6209 11.9041 53.6926 11.73 53.7847 11.5662C53.8769 11.4024 54.0049 11.259 54.1687 11.1361C54.394 10.962 54.6295 10.8596 54.8753 10.8289C55.1313 10.7982 55.3771 10.7828 55.6126 10.7828H59.1761V10.66C59.1761 10.5883 59.1659 10.5064 59.1454 10.4142C59.1351 10.3118 59.0942 10.2145 59.0225 10.1224C58.9099 9.96877 58.7665 9.87661 58.5924 9.84589C58.4183 9.81517 58.2545 9.79981 58.1009 9.79981H54.0151V7.77229ZM59.1761 12.7182H57.0411C56.9899 12.7182 56.9182 12.7284 56.826 12.7489C56.7441 12.7592 56.6673 12.795 56.5956 12.8564C56.5444 12.9076 56.5086 12.9691 56.4881 13.0408C56.4779 13.1022 56.4727 13.1688 56.4727 13.2404C56.4727 13.3019 56.4779 13.3633 56.4881 13.4248C56.5086 13.4862 56.5444 13.5425 56.5956 13.5937C56.6468 13.6449 56.7083 13.6808 56.7799 13.7012C56.8619 13.7217 56.9387 13.732 57.0103 13.732H58.5771C58.659 13.732 58.7409 13.7268 58.8228 13.7166C58.9047 13.6961 58.9713 13.6654 59.0225 13.6244C59.0942 13.5732 59.1351 13.5118 59.1454 13.4401C59.1659 13.3684 59.1761 13.2968 59.1761 13.2251V12.7182ZM63.5915 15.9131V11.1976C63.5915 11.003 63.5966 10.7931 63.6069 10.5678C63.6273 10.3323 63.6683 10.0968 63.7297 9.86125C63.8014 9.61549 63.8987 9.37997 64.0216 9.15469C64.1547 8.92941 64.3339 8.72461 64.5592 8.54029C64.7845 8.35597 65.0302 8.21261 65.2965 8.11021C65.5627 8.00781 65.8289 7.93101 66.0952 7.87981C66.3717 7.82861 66.6328 7.79789 66.8785 7.78764C67.1345 7.77741 67.3649 7.77229 67.5697 7.77229H69.5665V9.89197H68.5221C68.2251 9.89197 67.9435 9.92781 67.6773 9.99949C67.4213 10.0609 67.196 10.2196 67.0014 10.4756C66.8273 10.7112 66.7147 10.9723 66.6635 11.259C66.6225 11.5355 66.6021 11.7915 66.6021 12.027V15.9131H63.5915ZM86.0608 9.40045L84.4019 14.5921C84.3405 14.7867 84.2688 14.971 84.1869 15.1451C84.1049 15.3192 83.9872 15.4728 83.8336 15.6059C83.6902 15.739 83.4957 15.8414 83.2499 15.9131C83.0144 15.995 82.7072 16.036 82.3283 16.036C81.9494 16.036 81.6371 15.995 81.3913 15.9131C81.1558 15.8414 80.9613 15.739 80.8077 15.6059C80.6643 15.4728 80.5517 15.3192 80.4697 15.1451C80.3878 14.971 80.3161 14.7867 80.2547 14.5921L78.5958 9.40045C78.5651 9.29805 78.5293 9.21101 78.4883 9.13933C78.4576 9.05741 78.4217 9.01645 78.3808 9.01645C78.3091 9.01645 78.2681 9.06253 78.2579 9.15469C78.2579 9.24685 78.2579 9.31853 78.2579 9.36973L78.3654 15.9131H74.8787V6.92748C74.8787 6.45644 74.9913 6.09293 75.2166 5.83693C75.4419 5.58092 75.6979 5.3966 75.9846 5.28397C76.2816 5.16108 76.5734 5.0894 76.8601 5.06893C77.1571 5.04845 77.3773 5.03821 77.5206 5.03821C77.7459 5.03821 77.9865 5.05357 78.2425 5.08428C78.5088 5.11501 78.7699 5.1918 79.0259 5.31468C79.2819 5.42733 79.5174 5.60141 79.7325 5.83693C79.9475 6.07245 80.1267 6.40013 80.2701 6.81997L82.0057 12.0424C82.016 12.0731 82.0313 12.114 82.0518 12.1652C82.0723 12.2164 82.0979 12.2728 82.1286 12.3342C82.1593 12.3854 82.1901 12.4315 82.2208 12.4724C82.2617 12.5134 82.2976 12.5339 82.3283 12.5339C82.359 12.5339 82.3897 12.5134 82.4205 12.4724C82.4614 12.4315 82.4973 12.3854 82.528 12.3342C82.5587 12.2728 82.5843 12.2164 82.6048 12.1652C82.6253 12.114 82.6406 12.0731 82.6509 12.0424L84.3865 6.81997C84.5197 6.40013 84.6937 6.07245 84.9088 5.83693C85.1341 5.60141 85.3747 5.42733 85.6307 5.31468C85.8867 5.1918 86.1427 5.11501 86.3987 5.08428C86.6649 5.05357 86.9158 5.03821 87.1513 5.03821C87.7657 5.03821 88.247 5.10477 88.5952 5.23788C88.9433 5.371 89.2045 5.53484 89.3785 5.7294C89.5629 5.92396 89.6755 6.13388 89.7165 6.35916C89.7677 6.57421 89.7933 6.76365 89.7933 6.92748V15.9131H86.2912L86.4141 9.36973C86.4141 9.22637 86.3987 9.13421 86.368 9.09325C86.3373 9.04205 86.3065 9.01645 86.2758 9.01645C86.2451 9.01645 86.2144 9.04717 86.1837 9.10861C86.1529 9.15981 86.112 9.25709 86.0608 9.40045ZM96.0223 7.68013C96.3398 7.68013 96.6675 7.69037 97.0054 7.71085C97.3433 7.72108 97.671 7.75181 97.9884 7.80301C98.3059 7.85421 98.6028 7.93613 98.8793 8.04877C99.166 8.16141 99.422 8.31501 99.6473 8.50957C99.9033 8.73485 100.103 9.00109 100.246 9.30829C100.39 9.60525 100.497 9.90733 100.569 10.2145C100.641 10.5217 100.682 10.8187 100.692 11.1054C100.712 11.3921 100.723 11.6379 100.723 11.8427C100.723 12.0475 100.712 12.2932 100.692 12.58C100.682 12.8667 100.641 13.1636 100.569 13.4708C100.497 13.778 100.39 14.0852 100.246 14.3924C100.103 14.6894 99.9033 14.9505 99.6473 15.1758C99.422 15.3704 99.166 15.524 98.8793 15.6366C98.6028 15.7492 98.3059 15.8312 97.9884 15.8824C97.671 15.9336 97.3433 15.9643 97.0054 15.9745C96.6675 15.995 96.3398 16.0052 96.0223 16.0052C95.6947 16.0052 95.3619 15.995 95.0239 15.9745C94.6963 15.9643 94.3737 15.9336 94.0563 15.8824C93.7388 15.8312 93.4367 15.7492 93.15 15.6366C92.8735 15.524 92.6227 15.3704 92.3974 15.1758C92.1414 14.9505 91.9417 14.6894 91.7983 14.3924C91.655 14.0852 91.5475 13.778 91.4758 13.4708C91.4041 13.1636 91.358 12.8667 91.3375 12.58C91.3273 12.2932 91.3222 12.0475 91.3222 11.8427C91.3222 11.6379 91.3273 11.3921 91.3375 11.1054C91.358 10.8187 91.4041 10.5217 91.4758 10.2145C91.5475 9.90733 91.655 9.60525 91.7983 9.30829C91.9417 9.00109 92.1414 8.73485 92.3974 8.50957C92.6227 8.31501 92.8735 8.16141 93.15 8.04877C93.4367 7.93613 93.7388 7.85421 94.0563 7.80301C94.3737 7.75181 94.6963 7.72108 95.0239 7.71085C95.3619 7.69037 95.6947 7.68013 96.0223 7.68013ZM94.3942 11.8427C94.3942 12.2932 94.4249 12.626 94.4863 12.8411C94.558 13.0459 94.6246 13.1892 94.686 13.2712C94.6963 13.2916 94.727 13.3326 94.7782 13.394C94.8396 13.4555 94.9215 13.5169 95.0239 13.5784C95.1366 13.6398 95.2697 13.6961 95.4233 13.7473C95.5871 13.7985 95.7868 13.8241 96.0223 13.8241C96.4319 13.8241 96.734 13.7576 96.9286 13.6244C97.1334 13.4913 97.2716 13.3736 97.3433 13.2712C97.4662 13.0971 97.5481 12.8923 97.5891 12.6568C97.63 12.411 97.6505 12.1396 97.6505 11.8427C97.6505 11.4126 97.6198 11.09 97.5583 10.875C97.5071 10.66 97.4406 10.4961 97.3587 10.3835C97.2767 10.2811 97.1385 10.1684 96.9439 10.0456C96.7494 9.92269 96.4422 9.86125 96.0223 9.86125C95.6025 9.86125 95.2953 9.92269 95.1007 10.0456C94.9062 10.1684 94.7679 10.2811 94.686 10.3835C94.6348 10.4654 94.5734 10.6088 94.5017 10.8136C94.43 11.0184 94.3942 11.3614 94.3942 11.8427ZM101.947 15.9131V9.23149C101.947 9.10861 101.962 8.96525 101.993 8.80141C102.034 8.63757 102.115 8.47885 102.238 8.32525C102.443 8.05901 102.679 7.90029 102.945 7.84909C103.221 7.79789 103.523 7.77229 103.851 7.77229H110.84C111.301 7.77229 111.762 7.83885 112.222 7.97197C112.683 8.09485 113.067 8.29965 113.374 8.58637C113.661 8.85261 113.876 9.19053 114.019 9.60013C114.163 10.0097 114.235 10.404 114.235 10.7828V15.9131H111.224V11.3972C111.224 11.2232 111.203 11.0286 111.163 10.8136C111.132 10.5883 111.045 10.3988 110.901 10.2452C110.819 10.1531 110.697 10.0712 110.533 9.99949C110.369 9.92781 110.169 9.89197 109.934 9.89197H109.596V15.9131H106.585V9.89197H105.433C105.3 9.89197 105.203 9.90733 105.141 9.93805C105.09 9.96877 105.054 9.99437 105.034 10.0148C105.003 10.0558 104.983 10.1172 104.972 10.1992C104.962 10.2708 104.957 10.3476 104.957 10.4296V15.9131H101.947ZM123.905 15.9131H118.76C118.452 15.9131 118.161 15.908 117.884 15.8977C117.608 15.8875 117.346 15.8516 117.101 15.7902C116.855 15.7185 116.63 15.611 116.425 15.4676C116.22 15.3243 116.036 15.1195 115.872 14.8532C115.698 14.5563 115.585 14.1825 115.534 13.732C115.483 13.2712 115.457 12.6721 115.457 11.9348C115.457 11.5662 115.457 11.2129 115.457 10.875C115.457 10.5371 115.473 10.2248 115.503 9.93805C115.544 9.64109 115.611 9.36973 115.703 9.12397C115.795 8.87821 115.933 8.66317 116.118 8.47885C116.302 8.28429 116.532 8.13581 116.809 8.03341C117.096 7.92077 117.408 7.83884 117.746 7.78764C118.084 7.73644 118.437 7.70573 118.806 7.69549C119.185 7.68525 119.569 7.68013 119.958 7.68013C120.787 7.68013 121.473 7.70573 122.016 7.75693C122.559 7.80813 122.994 7.96685 123.322 8.23309C123.516 8.38669 123.67 8.57613 123.782 8.80141C123.905 9.02669 123.997 9.26221 124.059 9.50797C124.12 9.75373 124.156 10.0046 124.166 10.2606C124.187 10.5064 124.197 10.7419 124.197 10.9672C124.197 11.2334 124.171 11.5048 124.12 11.7812C124.079 12.0475 123.941 12.2728 123.706 12.4571C123.572 12.5697 123.439 12.6363 123.306 12.6568C123.183 12.6772 123.05 12.6875 122.907 12.6875H118.468C118.458 12.8001 118.463 12.9179 118.483 13.0408C118.514 13.1636 118.555 13.266 118.606 13.348C118.739 13.5528 118.929 13.6705 119.174 13.7012C119.43 13.7217 119.691 13.732 119.958 13.732H123.905V15.9131ZM118.468 10.7828H120.695C120.91 10.7828 121.043 10.7316 121.094 10.6292C121.156 10.5268 121.186 10.4347 121.186 10.3528C121.186 10.2401 121.151 10.1326 121.079 10.0302C121.007 9.92781 120.859 9.85101 120.634 9.79981C120.511 9.77933 120.367 9.76397 120.203 9.75373C120.04 9.74349 119.917 9.73837 119.835 9.73837C119.661 9.73837 119.471 9.74861 119.266 9.76909C119.062 9.77933 118.903 9.81517 118.79 9.87661C118.637 9.95853 118.539 10.0814 118.498 10.2452C118.458 10.3988 118.447 10.578 118.468 10.7828ZM125.422 15.9131V9.23149C125.422 9.07789 125.437 8.91405 125.468 8.73997C125.498 8.55565 125.596 8.38669 125.759 8.23309C125.872 8.12045 126.005 8.03341 126.159 7.97197C126.312 7.91053 126.471 7.86445 126.635 7.83373C126.799 7.80301 126.958 7.78764 127.111 7.78764C127.275 7.77741 127.418 7.77229 127.541 7.77229H130.367C130.838 7.77229 131.304 7.81325 131.765 7.89517C132.236 7.96685 132.682 8.16653 133.102 8.49421C133.327 8.67853 133.506 8.87309 133.639 9.07789C133.772 9.28269 133.875 9.49261 133.946 9.70765C134.018 9.92269 134.064 10.1326 134.085 10.3374C134.105 10.5422 134.115 10.7316 134.115 10.9057V15.9131H131.105V11.7812C131.105 11.4945 131.084 11.2385 131.043 11.0132C131.002 10.7777 130.91 10.5678 130.767 10.3835C130.634 10.2094 130.47 10.0865 130.275 10.0148C130.081 9.93293 129.83 9.89197 129.523 9.89197H128.985C128.924 9.89197 128.852 9.90221 128.77 9.92269C128.698 9.93293 128.632 9.96365 128.57 10.0148C128.488 10.0865 128.442 10.1633 128.432 10.2452C128.432 10.3169 128.432 10.3937 128.432 10.4756V15.9131H125.422ZM141.476 15.9131H139.725C139.572 15.9131 139.392 15.9131 139.188 15.9131C138.993 15.9028 138.783 15.8824 138.558 15.8516C138.333 15.8107 138.102 15.7544 137.867 15.6827C137.631 15.611 137.411 15.5035 137.206 15.3601C136.868 15.1246 136.612 14.8276 136.438 14.4692C136.264 14.1006 136.177 13.732 136.177 13.3633V9.86125H135.025V7.77229H136.177V5.16108H139.188V7.77229H141.507V9.86125H139.188V11.7198C139.188 12.0168 139.218 12.3137 139.28 12.6107C139.341 12.8974 139.485 13.1432 139.71 13.348C139.915 13.5323 140.135 13.6449 140.37 13.6859C140.616 13.7166 140.836 13.732 141.031 13.732H141.476V15.9131Z" />
</svg>
