<svg width="25" height="25" viewBox="0 0 25 25"  xmlns="http://www.w3.org/2000/svg">
<path d="M16.9628 9.44413H21.9548L18.7738 6.26113C17.7497 5.237 16.474 4.50053 15.075 4.12574C13.676 3.75095 12.203 3.75106 10.8041 4.12605C9.40516 4.50105 8.12959 5.23772 7.10563 6.262C6.08166 7.28628 5.34539 8.56208 4.97083 9.96113M3.92483 19.7401V14.7481M3.92483 14.7481H8.91683M3.92483 14.7481L7.10483 17.9311C8.12894 18.9553 9.40462 19.6917 10.8036 20.0665C12.2026 20.4413 13.6756 20.4412 15.0746 20.0662C16.4735 19.6912 17.7491 18.9545 18.773 17.9303C19.797 16.906 20.5333 15.6302 20.9078 14.2311M21.9548 4.45213V9.44213" stroke-width="1.5" stroke-linecap="round" stroke-linejoin="round"/>
</svg>
