<svg width="25" height="25" viewBox="0 0 25 25" xmlns="http://www.w3.org/2000/svg">
<path fill-rule="evenodd" clip-rule="evenodd" d="M7.34873 6.0957C7.34873 4.90223 7.82283 3.75764 8.66675 2.91372C9.51066 2.06981 10.6553 1.5957 11.8487 1.5957C13.0422 1.5957 14.1868 2.06981 15.0307 2.91372C15.8746 3.75764 16.3487 4.90223 16.3487 6.0957C16.3487 7.28918 15.8746 8.43377 15.0307 9.27768C14.1868 10.1216 13.0422 10.5957 11.8487 10.5957C10.6553 10.5957 9.51066 10.1216 8.66675 9.27768C7.82283 8.43377 7.34873 7.28918 7.34873 6.0957ZM3.59973 20.2007C3.63345 18.0352 4.51737 15.9698 6.06069 14.4503C7.60401 12.9308 9.68294 12.0792 11.8487 12.0792C14.0145 12.0792 16.0934 12.9308 17.6368 14.4503C19.1801 15.9698 20.064 18.0352 20.0977 20.2007C20.1003 20.3465 20.0604 20.4899 19.9828 20.6133C19.9052 20.7367 19.7932 20.8349 19.6607 20.8957C17.2099 22.0194 14.5449 22.5994 11.8487 22.5957C9.06273 22.5957 6.41573 21.9877 4.03673 20.8957C3.90421 20.8349 3.7923 20.7367 3.71469 20.6133C3.63708 20.4899 3.59713 20.3465 3.59973 20.2007Z"/>
</svg>
