<svg width="25" height="25" viewBox="0 0 25 25"  xmlns="http://www.w3.org/2000/svg">
<path d="M15.8261 6.0957C15.8261 7.09026 15.4311 8.04409 14.7278 8.74735C14.0245 9.45061 13.0707 9.8457 12.0761 9.8457C11.0816 9.8457 10.1278 9.45061 9.4245 8.74735C8.72124 8.04409 8.32615 7.09026 8.32615 6.0957C8.32615 5.10114 8.72124 4.14731 9.4245 3.44405C10.1278 2.74079 11.0816 2.3457 12.0761 2.3457C13.0707 2.3457 14.0245 2.74079 14.7278 3.44405C15.4311 4.14731 15.8261 5.10114 15.8261 6.0957ZM4.57715 20.2137C4.60928 18.2461 5.41349 16.3699 6.81633 14.9897C8.21916 13.6096 10.1082 12.8362 12.0761 12.8362C14.0441 12.8362 15.9331 13.6096 17.336 14.9897C18.7388 16.3699 19.543 18.2461 19.5751 20.2137C17.2225 21.2925 14.6643 21.8492 12.0761 21.8457C9.40015 21.8457 6.86015 21.2617 4.57715 20.2137Z" stroke-width="1.5" stroke-linecap="round" stroke-linejoin="round"/>
</svg>
